<svg xmlns="http://www.w3.org/2000/svg" aria-hidden="true" style="position:absolute;overflow:hidden">

<symbol id="icon-close-black" viewBox="0 0 18 18">
<path d="M15 4.10786L13.8921 3L9.5 7.39214L5.10786 3L4 4.10786L8.39214 8.5L4 12.8921L5.10786 14L9.5 9.60786L13.8921 14L15 12.8921L10.6079 8.5L15 4.10786Z"/>
</symbol>

<symbol id="icon-sun" viewBox="0 0 32 32">
<title>icon-sun</title>
<path fill="#fff" style="fill: var(--color1, #fff)" d="M16 25.846c0.68 0 1.231 0.551 1.231 1.231v0 3.692c0 0.68-0.551 1.231-1.231 1.231s-1.231-0.551-1.231-1.231v0-3.692c0-0.68 0.551-1.231 1.231-1.231v0zM9.038 22.962c0.223 0.223 0.36 0.53 0.36 0.87s-0.138 0.647-0.36 0.87l-2.61 2.61c-0.221 0.214-0.523 0.346-0.855 0.346-0.68 0-1.231-0.551-1.231-1.231 0-0.332 0.132-0.634 0.346-0.855l2.609-2.61c0.223-0.223 0.531-0.361 0.871-0.361s0.648 0.138 0.871 0.361v0zM24.703 22.962l2.61 2.61c0.214 0.221 0.346 0.523 0.346 0.855 0 0.68-0.551 1.231-1.231 1.231-0.332 0-0.634-0.132-0.855-0.346l-2.61-2.609c-0.223-0.223-0.361-0.531-0.361-0.871 0-0.68 0.551-1.231 1.231-1.231 0.34 0 0.647 0.138 0.87 0.36v0zM16 9.846c3.399 0 6.154 2.755 6.154 6.154s-2.755 6.154-6.154 6.154v0c-3.399 0-6.154-2.755-6.154-6.154s2.755-6.154 6.154-6.154v0zM30.769 14.769c0.68 0 1.231 0.551 1.231 1.231s-0.551 1.231-1.231 1.231v0h-3.692c-0.68 0-1.231-0.551-1.231-1.231s0.551-1.231 1.231-1.231v0h3.692zM4.923 14.769c0.68 0 1.231 0.551 1.231 1.231s-0.551 1.231-1.231 1.231v0h-3.692c-0.68 0-1.231-0.551-1.231-1.231s0.551-1.231 1.231-1.231v0h3.692zM27.313 4.687c0.223 0.223 0.36 0.53 0.36 0.87s-0.138 0.647-0.36 0.87l-2.609 2.61c-0.223 0.223-0.531 0.361-0.871 0.361-0.68 0-1.231-0.551-1.231-1.231 0-0.34 0.138-0.647 0.36-0.87l2.61-2.61c0.223-0.223 0.53-0.36 0.87-0.36s0.647 0.138 0.87 0.36v0zM6.427 4.687l2.61 2.609c0.223 0.223 0.361 0.531 0.361 0.871 0 0.68-0.551 1.231-1.231 1.231-0.339 0-0.647-0.137-0.87-0.36l-2.612-2.612c-0.214-0.221-0.346-0.523-0.346-0.855 0-0.68 0.551-1.231 1.231-1.231 0.332 0 0.634 0.132 0.855 0.346l-0-0zM16 0c0.68 0 1.231 0.551 1.231 1.231v0 3.692c0 0.68-0.551 1.231-1.231 1.231s-1.231-0.551-1.231-1.231v0-3.692c0-0.68 0.551-1.231 1.231-1.231v0z"></path>
</symbol>

<symbol id="icon-moon" viewBox="0 0 32 32">
<title>icon-moon</title>
<path fill="#fff" style="fill: var(--color1, #fff)" d="M16 0c0.997 0 1.973 0.091 2.921 0.266-5.883 1.21-10.305 6.417-10.305 12.657 0 7.137 5.786 12.923 12.923 12.923 3.687 0 7.015-1.545 9.37-4.022-2.33 5.957-8.127 10.176-14.908 10.176-8.837 0-16-7.163-16-16s7.163-16 16-16z"></path>
</symbol>

<symbol id="icon-check" viewBox="0 0 16 15"><path d="M3.95703 7.75166L3.88825 7.68604L3.81923 7.75141L2.93123 8.59258L2.85486 8.66492L2.93097 8.73753L6.42671 12.0724L6.49574 12.1382L6.56476 12.0724L14.069 4.91352L14.1449 4.84116L14.069 4.76881L13.1873 3.92764L13.1183 3.86183L13.0493 3.92761L6.49577 10.1735L3.95703 7.75166Z" fill="white" stroke="white" stroke-width="0.2"/></symbol>

<symbol id="icon-checkbox-empty" viewBox="0 0 16 15">
<path d="M14.2222 1.66667V13.3333H1.77778V1.66667H14.2222ZM14.2222 0H1.77778C0.8 0 0 0.75 0 1.66667V13.3333C0 14.25 0.8 15 1.77778 15H14.2222C15.2 15 16 14.25 16 13.3333V1.66667C16 0.75 15.2 0 14.2222 0Z"/>
</symbol>

<symbol id="icon-email-black" viewBox="0 0 18 18">
<g clip-path="url(#clip0_3_7010)">
<path d="M15 3H3C2.175 3 1.5075 3.675 1.5075 4.5L1.5 13.5C1.5 14.325 2.175 15 3 15H15C15.825 15 16.5 14.325 16.5 13.5V4.5C16.5 3.675 15.825 3 15 3ZM14.7 6.1875L9.3975 9.5025C9.1575 9.6525 8.8425 9.6525 8.6025 9.5025L3.3 6.1875C3.1125 6.0675 3 5.865 3 5.6475C3 5.145 3.5475 4.845 3.975 5.1075L9 8.25L14.025 5.1075C14.4525 4.845 15 5.145 15 5.6475C15 5.865 14.8875 6.0675 14.7 6.1875Z"/></g><defs><clipPath id="clip0_3_7010"><rect width="18" height="18"/></clipPath></defs>
</symbol>

<symbol id="icon-person-black" viewBox="0 0 18 18">
<g clip-path="url(#clip0_3_6998)">
<path d="M9 9C10.6575 9 12 7.6575 12 6C12 4.3425 10.6575 3 9 3C7.3425 3 6 4.3425 6 6C6 7.6575 7.3425 9 9 9ZM9 10.5C6.9975 10.5 3 11.505 3 13.5V14.25C3 14.6625 3.3375 15 3.75 15H14.25C14.6625 15 15 14.6625 15 14.25V13.5C15 11.505 11.0025 10.5 9 10.5Z"/></g><defs><clipPath id="clip0_3_6998"><rect width="18" height="18"/></clipPath></defs>
</symbol>

<symbol id="check-mark" viewBox="0 0 32 32">
<title>check-mark-svgrepo-com</title>
<path  d="M6.56 16.343c-0.846 0-1.691 0.351-2.293 1.036-0.541 0.609-0.808 1.394-0.754 2.209s0.419 1.554 1.029 2.095l5.478 4.808c0.556 0.488 1.272 0.762 2.011 0.762 0.084 0 0.168 0 0.251-0.008 0.823-0.069 1.592-0.472 2.111-1.112l13.417-16.427c1.067-1.303 0.869-3.23-0.434-4.297-0.632-0.51-1.425-0.754-2.232-0.67s-1.539 0.472-2.057 1.105l-11.421 13.973-3.101-2.72c-0.571-0.503-1.295-0.754-2.004-0.754z"></path>
<path  d="M12.030 26.705c-0.61 0-1.196-0.221-1.653-0.625l-5.478-4.808c-1.036-0.914-1.143-2.499-0.229-3.535s2.499-1.143 3.535-0.229l3.528 3.093 11.771-14.415c0.876-1.074 2.453-1.227 3.528-0.358 1.074 0.876 1.227 2.453 0.358 3.528l-13.425 16.427c-0.427 0.526-1.059 0.853-1.729 0.914-0.069 0-0.137 0.008-0.206 0.008z"></path>
<path  opacity="0.75" d="M12.030 26.705c-0.61 0-1.196-0.221-1.653-0.625l-5.478-4.808c-1.036-0.914-1.143-2.499-0.229-3.535s2.499-1.143 3.535-0.229l3.528 3.093 11.771-14.415c0.876-1.074 2.453-1.227 3.528-0.358 1.074 0.876 1.227 2.453 0.358 3.528l-13.425 16.427c-0.427 0.526-1.059 0.853-1.729 0.914-0.069 0-0.137 0.008-0.206 0.008z"></path>
<path  opacity="0.5" d="M12.030 26.705c-0.61 0-1.196-0.221-1.653-0.625l-5.478-4.808c-1.036-0.914-1.143-2.499-0.229-3.535s2.499-1.143 3.535-0.229l3.528 3.093 11.771-14.415c0.876-1.074 2.453-1.227 3.528-0.358 1.074 0.876 1.227 2.453 0.358 3.528l-13.425 16.427c-0.427 0.526-1.059 0.853-1.729 0.914-0.069 0-0.137 0.008-0.206 0.008z"></path>
</symbol>

<symbol id="icon-plus" viewBox="0 0 32 32">
<title>icon-plus</title>
<path d="M16 32c-8.837 0-16-7.163-16-16s7.163-16 16-16c8.837 0 16 7.163 16 16s-7.163 16-16 16z"></path>
<path fill="none" stroke="black" style="stroke: var(--color5, black)" stroke-linejoin="miter" stroke-linecap="round" stroke-miterlimit="4" stroke-width="1.6" d="M16 7.2v16.8"></path>
<path fill="none" stroke="black" style="stroke: var(--color5, black)" stroke-linejoin="miter" stroke-linecap="round" stroke-miterlimit="4" stroke-width="1.6" d="M8 15.2h16.8"></path>
</symbol>

<symbol id="icon-phone-black" viewBox="0 0 18 18">
<g clip-path="url(#clip0_3_7004)">
<path d="M13.996 11.1226L12.1579 10.9127C11.7164 10.862 11.2822 11.014 10.971 11.3252L9.63945 12.6568C7.59144 11.6147 5.91251 9.94296 4.87041 7.8877L6.20922 6.54888C6.5204 6.2377 6.67237 5.80349 6.62171 5.36205L6.41185 3.53836C6.325 2.80745 5.70988 2.25745 4.97173 2.25745H3.71976C2.902 2.25745 2.22175 2.93771 2.2724 3.75547C2.65595 9.93572 7.59868 14.8712 13.7717 15.2548C14.5894 15.3054 15.2697 14.6252 15.2697 13.8074V12.5555C15.2769 11.8245 14.7269 11.2094 13.996 11.1226Z"/></g><defs><clipPath id="clip0_3_7004"><rect width="18" height="18"/></clipPath></defs></symbol>
</svg>